 <svg version="1.0" xmlns="http://www.w3.org/2000/svg" width="310" height="310" viewBox="0 0 300 310" preserveAspectRatio="xMidYMid meet">
     <g transform="translate(0.000000,310.000000) scale(0.050000,-0.050000)" fill="#000000" stroke="none">
         <path d="M73 3625 c-28 -47 -58 -375 -58 -635 4 -1846 1648 -3237 3476 -2941 1596 259 2732 1823 2470 3401 -40 240 -47 240 -663 -51 -377 -177 -497 -215 -738 -232 l-171 -12 -289 150 c-395 204 -389 202 -810 204 -236 1 -454 14 -633 39 -283 38 -410 33 -431 -20 -24 -64 157 -189 314 -217 47 -8 27 5 -57 37 -407 155 -250 240 277 149 179 -31 344 -44 580 -46 374 -4 398 -10 731 -212 380 -229 642 -217 1246 60 279 127 499 212 513 197 58 -57 58 -749 1 -1036 -216 -1074 -997 -1921 -2055 -2228 -1598 -463 -3274 573 -3607 2228 -56 282 -57 978 -1 1035 4 4 294 -96 645 -221 350 -126 687 -245 747 -264 164 -53 364 -159 484 -255 58 -47 165 -130 236 -184 191 -145 374 -307 706 -626 319 -306 426 -374 714 -456 72 -20 155 -57 187 -83 31 -25 65 -46 75 -46 10 0 28 -23 38 -50 13 -34 40 -55 81 -63 41 -8 58 -22 51 -40 -6 -15 2 -27 16 -27 32 0 52 43 52 111 0 61 -64 104 -214 142 -178 45 -487 148 -574 192 -43 21 -260 216 -481 432 -368 359 -877 793 -1051 898 -38 23 -317 136 -620 252 -302 115 -679 260 -837 321 -287 112 -333 125 -350 97z" />
         <path d="M2250 3326 c-147 -13 -173 -24 -166 -72 18 -128 417 -176 566 -67 33 25 23 26 -78 10 -211 -33 -479 40 -306 84 85 22 154 64 90 56 -14 -2 -62 -7 -106 -11z" />
         <path d="M3020 3220 c-48 -48 -51 -96 -10 -154 30 -42 28 -43 -78 -57 -201 -25 -246 18 -87 85 117 49 60 67 -86 26 -127 -35 -158 -72 -102 -120 93 -78 187 -91 308 -40 l109 45 81 -54 c102 -68 244 -111 363 -111 109 0 202 -45 375 -183 298 -236 442 -253 1007 -122 193 45 379 87 415 95 52 10 65 23 65 62 0 64 -2 64 -460 -44 -588 -138 -660 -131 -953 89 -209 157 -304 203 -421 204 -162 1 -445 125 -446 194 0 44 252 30 456 -26 225 -62 374 -61 374 1 0 34 -18 42 -123 54 -68 7 -183 32 -257 55 -188 57 -473 58 -530 1z" />
         <path d="M709 2654 c-19 -50 1 -65 119 -92 294 -66 391 -309 324 -812 -32 -240 58 -286 605 -310 552 -24 678 -62 1303 -400 89 -48 134 -59 240 -60 94 0 152 -12 212 -43 88 -47 148 -40 148 17 -1 57 -185 126 -332 126 -100 0 -143 11 -230 61 -568 320 -928 419 -1522 419 -301 0 -362 47 -315 244 46 193 1 548 -87 678 -84 125 -434 254 -465 172z" />
         <path d="M1360 2418 c0 -49 122 -178 168 -178 54 0 36 31 -38 66 -51 24 -74 51 -83 94 -14 68 -47 81 -47 18z" />
         <path d="M3880 1261 c0 -10 16 -31 35 -45 33 -25 94 -116 77 -116 -4 0 -33 13 -65 30 -65 34 -127 39 -127 11 0 -11 17 -29 38 -40 20 -11 43 -43 50 -72 15 -59 53 -56 81 6 11 24 38 46 60 49 94 14 65 128 -41 164 -112 38 -108 37 -108 13z" />
         <path d="M3746 1011 c47 -75 83 -89 101 -41 17 45 -4 85 -53 98 -85 23 -93 13 -48 -57z" />
     </g>
 </svg>
