<?xml version="1.0" encoding="UTF-8"?>
<!DOCTYPE svg PUBLIC "-//W3C//DTD SVG 1.1//EN" "http://www.w3.org/Graphics/SVG/1.1/DTD/svg11.dtd">
<!-- Creator: CorelDRAW 2021 (64-Bit) -->
<svg xmlns="http://www.w3.org/2000/svg" xml:space="preserve" version="1.1" style="shape-rendering:geometricPrecision; text-rendering:geometricPrecision; image-rendering:optimizeQuality; fill-rule:evenodd; clip-rule:evenodd" viewBox="0 0 10000 10000" xmlns:xlink="http://www.w3.org/1999/xlink" xmlns:xodm="http://www.corel.com/coreldraw/odm/2003">
    <defs>
        <style type="text/css">
            <![CDATA[
            .fil0 {
                fill: black
            }

            .fil1 {
                fill: black;
                fill-rule: nonzero
            }

            ]]>
        </style>
    </defs>
    <g id="Слой_x0020_1">
        <metadata id="CorelCorpID_0Corel-Layer" />
        <g id="_2192230118976">
            <g>
                <path class="fil0" d="M-2.47 4986.01c0,632.26 97.28,1230.23 315.66,1786.3l139.26 334.81c153.86,379.89 486.49,859.05 755.27,1176.75 407.13,481.23 960.35,920.39 1526.77,1201.31l535.6 233.64c917.9,329.95 1867.53,395.64 2840.37,181.55 204.47,-44.99 397.59,-109.08 594.44,-174.79 114.04,-38.07 224.82,-90.51 337.15,-136.9 350.3,-144.69 764.02,-404.98 1056.46,-643.02 32.46,-26.42 55.31,-46.56 88.41,-72.58 318.22,-250.11 686.26,-672.47 898.23,-971.18 83.9,-118.22 168.05,-248.43 241.09,-376.09 93.96,-164.21 191.49,-341.92 261.23,-516.95l129.32 -335.79c189.26,-540.74 280.74,-1079.78 280.74,-1696.01 0,-293 -35.25,-581.38 -85.64,-871.43 -7.24,-41.71 -10.8,-69.84 -30.65,-94.57 -62.86,-78.3 -107.26,-60.87 -197.91,-27.98l-964.87 421.53c-420.7,210.35 -772.13,357.78 -1305.9,357.78 -231.06,0 -624.25,-276.34 -858.68,-393.56 -203.81,-101.9 -405.85,-196.78 -644.01,-196.78 -161.81,0 -305.67,36.72 -465,35.9 -92.61,-0.47 -150.44,-9.29 -241.62,-9.06 -400.06,0.98 -753.13,-125.23 -1153.84,-125.23 -87.61,0 -194.7,-9.6 -276.44,18.73 -166.52,57.7 7.36,202.88 79.52,258.69 171.45,132.6 615.76,232.42 840.93,232.42l0 -8.94c-202.73,0 -643.92,-113.36 -798.72,-229.91 -19.07,-14.36 -26.85,-21.05 -44.89,-35.61l-88.23 -90.66c-14.87,-20.9 -22.65,-33.15 -25.23,-64.22 118.84,-79.57 506.09,-16.03 625.66,0.46 477.05,65.82 622.45,133.71 1145.36,133.71 476.36,0 440.44,-97.31 933.21,149.08 602.57,301.28 652.99,544.41 1415.43,437.49 276.57,-38.79 491.37,-115.73 732.12,-216 79.39,-33.06 143.27,-65.89 222.36,-99.65 189.19,-80.74 752.41,-356.21 909.76,-369.31l51.22 387.06c9.35,73.32 8.92,136.12 11.1,212.52 1.29,45.02 9,49.48 9.59,97.74 8.29,671.04 -92.17,1290.76 -331.3,1887.66 -109.29,272.8 -241.6,529.88 -391.88,779.86 -117.46,195.39 -309.42,466.98 -469.14,631.04l-178.77 196.9c-248.5,246.27 -515.85,463.86 -808.15,658.75 -181.08,120.74 -372.4,220.77 -567.09,318.43 -133.44,66.93 -275.62,119.2 -416.62,173.72 -142.74,55.18 -296.68,100.75 -451,139.33 -155.48,38.87 -322.83,74.54 -492.41,97.93 -435.71,60.12 -932.87,61.35 -1368.58,0.99 -736.98,-102.08 -1502.4,-400.71 -2100.09,-842.67 -167.53,-123.88 -339.95,-250.71 -486.52,-398.99 -61.3,-62.03 -130,-113.2 -187.84,-178.88 -15.66,-17.79 -15.78,-22.33 -31.44,-40.12l-138.49 -147.74c-15.36,-17.28 -16.31,-22.33 -31.64,-39.92 -104.21,-119.6 -201.18,-248.1 -291.87,-378.97 -121.29,-175.05 -234.31,-362.69 -330.28,-555.23 -34.04,-68.3 -62.76,-133.31 -95.53,-199.63 -121.75,-246.38 -240.81,-617.79 -297.28,-883.4 -115.93,-545.21 -162.1,-1147.78 -79.86,-1721.2 8.59,-59.92 27.19,-139.42 28.43,-195.18 92.3,44.29 719.55,254.57 873.95,315.68 73.63,29.15 146.35,49.6 217.29,77.88l665.15 238.25c267.85,91.17 638.13,208.08 884.84,313.73 207.63,88.91 375.88,213.97 546.93,347.52l168.1 136.02c163.56,134.39 327.28,245.32 501.52,392.94 148.1,125.46 442.32,370.15 558.67,487.84 26.71,27.02 46.76,50.84 77.49,74.56 59.94,46.29 102.33,96.47 154.99,149.13l454.62 439.83c216.3,168 290.63,215.5 588.56,314.84 79.09,26.38 380.42,130.78 461.74,137.55 7.48,89.87 163.44,160.7 241.5,178.89 -34.49,51.5 -33.55,63.62 15.22,109.99 15.58,14.82 30.57,28.02 51.47,37.99 49.57,23.64 101.95,26.16 147.98,4.07 0,51.83 -45.37,134.17 17.89,134.17 54.08,0 107.33,-111.71 107.33,-161 0,-74.21 -20.03,-118.1 -73.61,-167.89 -83.56,-77.63 -187.14,-91.1 -298.28,-113.17l-155.84 -49.89c-66.73,0 -48.83,12.74 -121.86,-12.28 -297.5,-101.91 -615.04,-183.8 -862.22,-372.15 -17.98,-13.71 -20.78,-17.82 -37.85,-33.71l-201.23 -192.32c-55.29,-55.29 -96.65,-105.59 -152.06,-161 -51.43,-51.44 -109.52,-103.3 -156.46,-156.6 -15.66,-17.79 -15.78,-22.33 -31.44,-40.12 -13.59,-15.43 -25.29,-25.48 -40.18,-40.32l-237.04 -228.08c-29.62,-29.63 -44.56,-46.54 -78.96,-73.1l-247.69 -226.37c-158.64,-153.19 -329.3,-290.53 -503.65,-426.58l-511.74 -418.5c-127.76,-85.46 -260.84,-163.85 -401.79,-224.32 -147.23,-63.15 -296.08,-111.99 -448.46,-168.71l-1902.68 -735.96c-64.24,-25.88 -302.91,-130.31 -343.76,-130.31 -103.98,0 -111.03,101.78 -124.02,180.09 -46.91,282.79 -81.7,556.67 -81.7,857.48z" />
                <path class="fil0" d="M1160.32 5638.96c0,44.82 24.68,78.57 59.75,92.31 96.38,37.74 517.61,23.62 661.14,403.25 38.99,103.11 62.03,404.98 76.82,531.48 22.88,195.75 -73.2,374.28 -73.2,520.37 0,169.48 117.59,309.04 235.31,363.96 74.85,34.93 148.17,47.04 246.08,58.05 476.88,53.63 858.72,-32 1405.91,105.71 166.53,41.9 300.3,87.95 451.05,148.24 73.99,29.58 143.75,56.46 213.94,90.17l396.65 202.64c186.42,104.25 398.21,265.58 646.77,265.58 174.64,0 171.31,-68.23 368.4,51.98 29.55,18.03 127.84,64.29 168.27,64.29 57.43,0 102.45,-48.8 95.03,-104.16 -10.02,-74.72 -61.88,-70.07 -119.04,-95.44 -143.76,-63.8 -163.75,-122.4 -351.66,-122.4 -160.48,0 -231.89,83.66 -565.26,-132.42 -295.61,-191.6 -816.78,-427.11 -1145.03,-518.66 -284.39,-79.31 -621.65,-127.11 -982.02,-127.1 -180.35,0.01 -626.51,19.3 -767.67,-64.17 -156.86,-92.74 -105.87,-235.87 -71.24,-381.18 36.77,-154.34 33.9,-173.67 33.9,-323.88 0,-82.59 -23.17,-157.22 -26.77,-241.56 -22.48,-527.43 -270.41,-777.49 -783.33,-862.47 -39.34,-6.52 -173.8,-39.42 -173.8,75.41z" />
                <path class="fil0" d="M5051.2 4977.06c-32.84,0.74 -99.78,12.5 -130.61,21.46 -48.05,13.97 -72.25,31.17 -128.4,32.65 -83.75,2.21 -187.96,-17.35 -250.83,-71.99l387.09 -167.48c16.39,-10.57 6.39,-3.57 15.41,-11.42 -122.13,0 -578.12,42.4 -567.37,186.37 5.8,77.6 150.14,141.15 210.57,161.5 280.33,94.4 344.12,-79.75 519.53,-88.03 39.41,-1.86 52.81,22.26 121.81,63.86 558.4,336.6 645.37,77.67 964.08,288.16 41.43,27.36 73.68,44.93 114.61,73.22 264.41,182.75 346.21,320.53 704.15,449.69 394.59,142.39 1143.87,-123.25 1599.05,-214.32 51.11,-10.22 106.59,-23.06 155.18,-32.65 78.77,-15.55 270.73,-29.78 203.84,-163.56 -25.37,-50.75 -68.98,-56.95 -132.33,-42.45 -99.3,22.72 -214.76,47.75 -316.04,68.82 -207.89,43.24 -408.78,97.23 -614.56,145.72 -155.6,36.66 -472.37,116.33 -671.47,95.27 -424.14,-44.87 -637.14,-369.59 -973.27,-556.25 -196.14,-108.92 -258.89,-101.68 -459.46,-104.04 -54.07,-0.64 -129.53,-15.05 -171.62,-25.16 -128.2,-30.8 -407.9,-179.13 -480.97,-288.26 25.18,-37.6 31.71,-33.09 88.98,-36.24 42.95,-2.36 63.65,-9.92 116.98,-8.96l240.56 19.07c265.37,29.55 466.98,162.48 734.16,160.3 58.22,-0.47 73.63,9.23 125.37,9.81 149.68,1.67 144.04,-159.62 31.11,-184.18 -87.62,-19.07 -240.34,-10.58 -349.55,-35.07 -208.08,-46.67 -345.47,-133.22 -629.79,-148.39 -166.59,-8.88 -367.19,-14.21 -461.76,57.11 -40.11,30.24 -88.14,106.8 -83.18,174.44 1.77,24.07 21.15,73.35 32.92,92.64 21.71,35.58 35.41,39.81 55.81,78.36z" />
                <path class="fil0" d="M3459.07 4592.45c0,162.07 368.72,232.56 563.5,232.56 136.04,0 423.58,-83.16 474.06,-152.06 -72.94,1.62 -172.83,35.78 -322,35.78 -197.13,0 -275.59,-0.11 -464.11,-63.62 -27.78,-9.36 -75.93,-23.32 -99.4,-43.72 85.57,-19.93 222.12,-49.35 298.31,-86.31l86.31 -47.86c-44.01,0 -102.63,6.19 -148.22,12.78 -54.55,7.89 -109.03,0.28 -162.4,7.56 -87.63,11.94 -226.05,0.1 -226.05,104.89z" />
                <path class="fil0" d="M6473.38 7928.76c0,60.13 82.87,113.28 134.17,125.23 -42.12,79.59 13.1,112.9 53.67,116.28 -14.25,21.28 -10.83,9.31 -17.89,35.78l-17.89 0c-5.14,-61.71 -59.23,-69.25 -115.62,-81.16 -62.22,-13.15 -186.51,-87.7 -175.51,-2.52 7.19,55.68 85.73,87.54 112.24,101.57 -4.42,18.43 -30.62,78.27 44.72,98.38 -37.03,158.96 149.23,46.58 152.06,-80.5 101.1,48.52 236.69,-138.77 132.63,-248.91 -42.51,-45 -115.46,-43.81 -209.83,-76.52 -32.16,-11.15 -92.75,-41.61 -92.75,12.37z" />
                <path class="fil0" d="M6258.71 8331.27c-15.95,68.49 0.94,44.08 23.75,82.59 18.44,31.14 -9.57,22.22 11.16,52.71 49.29,72.48 217.06,-137.79 79.24,-204.72l-176.76 -46.86c-68.72,0 -11.95,110.07 62.61,116.28z" />
                <path class="fil0" d="M2555.67 6282.97c20.05,0 19.64,-7.08 35.78,-17.89 -13.23,-49.55 -47.57,-34.95 -95.71,-56.35 -37.49,-16.66 -68.07,-38.71 -94.7,-66.31 -114.81,-119.02 -46.03,-217.23 -104.76,-217.23 -101.17,0 44.28,357.78 259.39,357.78z" />
            </g>
        </g>
        <path class="fil1" d="M3577.11 2113.27l216.75 0 528.31 800.1 0 -800.1 230.3 0 0 1215.81 -218.44 0 -526.63 -797.56 0 797.56 -230.29 0 0 -1215.81zm1679.78 672.25c0,79.31 -28.5,147.6 -85.51,204.33 -57.29,56.73 -125.59,85.23 -204.89,85.23 -80.44,0 -149.02,-28.22 -205.74,-84.67 -56.45,-56.72 -84.67,-125.02 -84.67,-204.89 0,-79.3 28.51,-147.6 85.23,-204.33 56.73,-56.72 125.31,-85.23 205.18,-85.23 79.3,0 147.6,28.51 204.89,85.23 57.01,56.73 85.51,125.03 85.51,204.33zm-150.7 -0.56c0,-38.95 -13.83,-72.53 -41.21,-100.19 -27.37,-27.66 -60.11,-41.49 -98.49,-41.49 -38.39,0 -71.12,13.83 -98.5,41.49 -27.37,27.66 -41.2,61.24 -41.2,100.19 0,39.79 13.54,73.66 40.64,101.31 27.09,27.66 60.11,41.49 99.06,41.49 38.38,0 71.12,-14.11 98.49,-42.05 27.38,-27.94 41.21,-61.52 41.21,-100.75zm-430.11 400.19l580.81 0 0 143.93 -580.81 0 0 -143.93z" />
        <polygon id="_1" class="fil1" points="6071.1,2113.27 6417.95,2113.27 6417.95,3329.08 6187.66,3329.08 6187.66,2330.02 5937.04,2330.02 " />
        <path class="fil1" d="M1289.57 3219.72l-660.19 -376.27 72.84 -127.81 547.1 311.81 126.29 -221.59 -547.09 -311.81 72.32 -126.89 547.09 311.81 76.51 -134.25 211.48 120.53 -67.08 117.69 -98.38 -56.07 -280.89 492.85zm-175.74 -1154.52l260.26 -323.08 110.44 88.97 -169.97 210.99 106.32 85.64 169.96 -210.99 108.8 87.64 -169.97 210.99 155.76 125.48 169.97 -211 110.44 88.97 -260.26 323.08 -591.75 -476.69zm438.56 -517l110.33 -97.31 189.72 215.09 190.49 -168.02 -189.73 -215.1 109.53 -96.61 502.66 569.87 -109.52 96.61 -220.53 -250.01 -190.49 168.02 220.53 250.01 -110.32 97.32 -502.67 -569.87zm577.78 -491.41l352.34 -228.89 77.83 119.81 -116.26 75.52 336.13 517.42 -123.37 80.14 -336.13 -517.42 -112.71 73.23 -77.83 -119.81zm492.63 -309.12l135.44 -72.53c73.24,-39.22 129.53,-60.76 169.12,-64.55 39.59,-3.78 76.99,4.4 111.8,24.58 34.81,20.16 63.54,51.4 86.19,93.7 25.06,46.8 33.6,92.26 25.6,136.35 -7.85,44.02 -29.55,83.46 -65.19,118.15 -20.98,20.24 -64.09,47.73 -129.24,82.61l151.87 283.63 -126.89 67.95 -358.7 -669.89zm267.27 194.22l40.9 -21.9c32.18,-17.23 53.17,-31.47 63.35,-42.72 10.1,-11.41 15.9,-24.12 17.55,-38.61 1.49,-14.41 -1.76,-29.07 -9.84,-44.15 -13.91,-25.97 -34.17,-39.54 -60.71,-40.52 -19.36,-1.05 -49.15,9.11 -88.95,30.42l-36.24 19.4 73.94 138.08zm732.09 -626.03l533.14 -123.03 170.87 740.42 -142.31 32.84 -140.4 -608.42 -247.5 57.12 140.41 608.42 -143.35 33.07 -170.86 -740.42zm820.94 -160.76l413.68 -31.35 10.72 141.42 -270.17 20.47 10.32 136.13 270.16 -20.47 10.56 139.3 -270.17 20.47 15.12 199.45 270.17 -20.47 10.71 141.41 -413.68 31.35 -57.42 -757.71zm909.77 -15.09l145.81 11.05 197.64 641.18 84.07 6.37 -18.79 248 -139.3 -10.56 8.55 -112.92 -523.42 -39.66 -8.56 112.91 -139.3 -10.55 18.79 -248 84.25 6.38 290.26 -604.2zm59.12 204.9l-198.47 410.74 332.77 25.22 -134.3 -435.96zm1193.16 47.41l-212.52 729.55 -138.19 -40.25 133.05 -456.74 -407.9 376.67 -119.4 -34.78 212.52 -729.55 138.2 40.25 -137.39 471.64 416.48 -390.34 115.15 33.55zm307.69 113.51l129.32 67.87 -122.13 232.72 304.24 -137.14 154.47 81.07 -392.68 176.97 62.37 507.84 -151.98 -79.76 -50.11 -408.57 -157.3 299.72 -129.32 -67.87 353.12 -672.85zm650.17 679.62l76.65 61.74c108.03,-61.56 202.87,-88.21 284.36,-79.42 81.6,8.65 152.54,37.27 212.57,85.62 81.46,65.62 128.87,152.97 142.14,262.17 13.37,109.09 -15.86,208.07 -87.56,297.08 -69.6,86.4 -158.27,135.48 -265.89,147.31 -107.61,11.85 -203.71,-16.19 -288.05,-84.13 -75.41,-60.75 -123.63,-140.36 -144.79,-238.95 -21.26,-98.43 -1.25,-192.17 59.58,-280.89l-76.65 -61.74 -208.47 258.79 -112.1 -90.3 476.7 -591.75 112.09 90.29 -180.58 224.18zm514.87 535.03c43.38,-53.85 63.06,-115.68 58.8,-185.47 -4.26,-69.8 -34.39,-127.14 -90.3,-172.17 -52.74,-42.49 -113.26,-60.45 -181.43,-53.97 -68.04,6.57 -126.52,40.08 -175.1,100.39 -48.13,59.75 -67.47,123.68 -57.97,192.03 9.46,68.09 40.24,123.24 92.44,165.29 53.29,42.93 114.34,59.94 182.87,51.06 68.68,-8.77 125.55,-41.12 170.69,-97.16zm557.95 32.26l94.7 120.99c51.2,65.42 82.09,117.18 92.61,155.53 10.53,38.35 8.88,76.61 -5.02,114.36 -13.89,37.76 -39.74,71.42 -77.52,100.99 -41.81,32.72 -85.12,48.93 -129.94,48.62 -44.71,-0.18 -87.28,-14.79 -127.58,-43.95 -23.54,-17.19 -58.02,-54.95 -103.57,-113.14l-253.35 198.29 -88.72 -113.35 598.39 -468.34zm-145.47 296.64l28.59 36.53c22.5,28.75 40.14,46.98 52.97,55.09 12.97,7.99 26.49,11.52 41.04,10.65 14.45,-1 28.34,-6.72 41.81,-17.27 23.2,-18.15 33.08,-40.44 29.5,-66.76 -2.29,-19.25 -17.41,-46.85 -45.23,-82.41l-25.34 -32.36 -123.34 96.53zm691.72 469.76l71.29 127.05 -519.56 626.9 -73.63 -131.22 107.59 -128.33 -152.43 -271.66 -166.29 23.73 -73.63 -131.21 806.66 -115.26zm-140.4 162.5l-278.53 38.18 100.55 179.21 177.98 -217.39z" />
    </g>
</svg>
